name Visual3d_SIMM_grf.mot
datacolumns 19
datarows 48
range 0.390000 0.860000
endheader
time	ground_force_vx	ground_force_vy	ground_force_vz	ground_force_px	ground_force_py	ground_force_pz	l_ground_force_vx	l_ground_force_vy	l_ground_force_vz	l_ground_force_px	l_ground_force_py	l_ground_force_pz	ground_torque_x	ground_torque_y	ground_torque_z	l_ground_torque_x	l_ground_torque_y	l_ground_torque_z
0.390000	0.000000	0.000000	0.000000	0.000000	0.000000	0.000000	14.334270	147.825043	-0.015819	0.312252	-0.005748	-0.198762	0.000000	0.000000	0.000000	0.000468	-0.039133	-0.000782
0.400000	0.000000	0.000000	0.000000	0.000000	0.000000	0.000000	19.276550	173.724014	-1.338473	0.306656	-0.005840	-0.197507	0.000000	0.000000	0.000000	-0.000094	0.007832	0.000157
0.410000	0.000000	0.000000	0.000000	0.000000	0.000000	0.000000	23.816111	196.934280	-2.797251	0.300321	-0.005894	-0.196003	0.000000	0.000000	0.000000	-0.000966	0.080781	0.001614
0.420000	0.000000	0.000000	0.000000	0.000000	0.000000	0.000000	27.700020	217.202759	-4.102936	0.293343	-0.005892	-0.194378	0.000000	0.000000	0.000000	-0.002092	0.174870	0.003495
0.430000	0.000000	0.000000	0.000000	0.000000	0.000000	0.000000	30.763922	234.174332	-5.066663	0.285851	-0.005840	-0.192727	0.000000	0.000000	0.000000	-0.003357	0.280642	0.005609
0.440000	0.000000	0.000000	0.000000	0.000000	0.000000	0.000000	32.897141	247.392654	-5.633520	0.277971	-0.005761	-0.191103	0.000000	0.000000	0.000000	-0.004606	0.385101	0.007696
0.450000	0.000000	0.000000	0.000000	0.000000	0.000000	0.000000	34.133762	256.503418	-5.906009	0.269764	-0.005677	-0.189505	0.000000	0.000000	0.000000	-0.005678	0.474675	0.009486
0.460000	0.000000	0.000000	0.000000	0.000000	0.000000	0.000000	34.590336	261.440430	-6.073819	0.261260	-0.005609	-0.187890	0.000000	0.000000	0.000000	-0.006489	0.542495	0.010842
0.470000	0.000000	0.000000	0.000000	0.000000	0.000000	0.000000	34.379025	262.507538	-6.296640	0.252506	-0.005560	-0.186198	0.000000	0.000000	0.000000	-0.007059	0.590123	0.011794
0.480000	0.000000	0.000000	0.000000	0.000000	0.000000	0.000000	33.618534	260.337524	-6.655649	0.243585	-0.005527	-0.184381	0.000000	0.000000	0.000000	-0.007450	0.622834	0.012447
0.490000	0.000000	0.000000	0.000000	0.000000	0.000000	0.000000	32.437244	255.796173	-7.138410	0.234646	-0.005497	-0.182429	0.000000	0.000000	0.000000	-0.007726	0.645893	0.012908
0.500000	0.000000	0.000000	0.000000	0.000000	0.000000	0.000000	30.935877	249.863739	-7.682373	0.225919	-0.005458	-0.180394	0.000000	0.000000	0.000000	-0.007938	0.663591	0.013262
0.510000	0.000000	0.000000	0.000000	0.000000	0.000000	0.000000	29.179317	243.488922	-8.217002	0.217725	-0.005405	-0.178382	0.000000	0.000000	0.000000	-0.008101	0.677243	0.013535
0.520000	0.000000	0.000000	0.000000	0.000000	0.000000	0.000000	27.207302	237.419144	-8.680293	0.210399	-0.005340	-0.176530	0.000000	0.000000	0.000000	-0.008202	0.685726	0.013704
0.530000	0.000000	0.000000	0.000000	0.000000	0.000000	0.000000	25.052748	232.102005	-9.037797	0.204207	-0.005275	-0.174962	0.000000	0.000000	0.000000	-0.008208	0.686191	0.013714
0.540000	0.000000	0.000000	0.000000	0.000000	0.000000	0.000000	22.741373	227.683319	-9.289028	0.199283	-0.005225	-0.173741	0.000000	0.000000	0.000000	-0.008087	0.676065	0.013511
0.550000	0.000000	0.000000	0.000000	0.000000	0.000000	0.000000	20.290977	224.069885	-9.463552	0.195622	-0.005199	-0.172855	0.000000	0.000000	0.000000	-0.007846	0.655953	0.013109
0.560000	0.000000	0.000000	0.000000	0.000000	0.000000	0.000000	17.733580	221.030167	-9.607373	0.193091	-0.005206	-0.172238	0.000000	0.000000	0.000000	-0.007536	0.629975	0.012590
0.570000	0.000000	0.000000	0.000000	0.000000	0.000000	0.000000	15.115935	218.295135	-9.748425	0.191473	-0.005254	-0.171820	0.000000	0.000000	0.000000	-0.007201	0.602038	0.012032
0.580000	0.000000	0.000000	0.000000	0.000000	0.000000	0.000000	12.509811	215.641159	-9.881057	0.190522	-0.005345	-0.171552	0.000000	0.000000	0.000000	-0.006858	0.573354	0.011458
0.590000	0.000000	0.000000	0.000000	0.000000	0.000000	0.000000	9.991577	212.927841	-9.977924	0.190011	-0.005470	-0.171413	0.000000	0.000000	0.000000	-0.006496	0.543029	0.010852
0.600000	0.000000	0.000000	0.000000	0.000000	0.000000	0.000000	7.602240	210.093475	-9.999313	0.189750	-0.005601	-0.171396	0.000000	0.000000	0.000000	-0.006092	0.509263	0.010178
0.610000	0.000000	0.000000	0.000000	0.000000	0.000000	0.000000	5.351353	207.157394	-9.912899	0.189590	-0.005709	-0.171502	0.000000	0.000000	0.000000	-0.005623	0.470116	0.009395
0.620000	0.000000	0.000000	0.000000	0.000000	0.000000	0.000000	3.226355	204.201965	-9.706140	0.189432	-0.005780	-0.171733	0.000000	0.000000	0.000000	-0.005078	0.424545	0.008485
0.630000	0.000000	0.000000	0.000000	0.000000	0.000000	0.000000	1.199422	201.349274	-9.390911	0.189235	-0.005819	-0.172090	0.000000	0.000000	0.000000	-0.004457	0.372584	0.007446
0.640000	0.000000	0.000000	0.000000	0.000000	0.000000	0.000000	-0.765841	198.733627	-9.000123	0.189001	-0.005834	-0.172560	0.000000	0.000000	0.000000	-0.003778	0.315842	0.006312
0.650000	0.000000	0.000000	0.000000	0.000000	0.000000	0.000000	-2.714050	196.497650	-8.580653	0.188750	-0.005833	-0.173136	0.000000	0.000000	0.000000	-0.003077	0.257261	0.005141
0.660000	0.000000	0.000000	0.000000	0.000000	0.000000	0.000000	-4.682360	194.776108	-8.178125	0.188507	-0.005819	-0.173813	0.000000	0.000000	0.000000	-0.002395	0.200261	0.004002
0.670000	0.000000	0.000000	0.000000	0.000000	0.000000	0.000000	-6.696957	193.698914	-7.825500	0.188286	-0.005789	-0.174578	0.000000	0.000000	0.000000	-0.001765	0.147567	0.002949
0.680000	0.000000	0.000000	0.000000	0.000000	0.000000	0.000000	-8.779303	193.377579	-7.534155	0.188090	-0.005744	-0.175402	0.000000	0.000000	0.000000	-0.001206	0.100824	0.002015
0.690000	0.000000	0.000000	0.000000	0.000000	0.000000	0.000000	-10.951378	193.898285	-7.292511	0.187896	-0.005692	-0.176239	0.000000	0.000000	0.000000	-0.000729	0.060979	0.001219
0.700000	0.000000	0.000000	0.000000	0.000000	0.000000	0.000000	-13.242805	195.296188	-7.081374	0.187676	-0.005648	-0.177053	0.000000	0.000000	0.000000	-0.000340	0.028410	0.000568
0.710000	0.000000	0.000000	0.000000	0.000000	0.000000	0.000000	-15.690032	197.561478	-6.883019	0.187425	-0.005631	-0.177822	0.000000	0.000000	0.000000	-0.000044	0.003694	0.000074
0.720000	0.000000	0.000000	0.000000	0.000000	0.000000	0.000000	-18.330938	200.633118	-6.692169	0.187157	-0.005653	-0.178535	0.000000	0.000000	0.000000	0.000138	-0.011569	-0.000231
0.730000	0.000000	0.000000	0.000000	0.000000	0.000000	0.000000	-21.202188	204.389160	-6.518673	0.186890	-0.005713	-0.179177	0.000000	0.000000	0.000000	0.000172	-0.014407	-0.000288
0.740000	0.000000	0.000000	0.000000	0.000000	0.000000	0.000000	-24.334518	208.635254	-6.390718	0.186623	-0.005798	-0.179726	0.000000	0.000000	0.000000	0.000012	-0.000966	-0.000019
0.750000	0.000000	0.000000	0.000000	0.000000	0.000000	0.000000	-27.744476	213.112640	-6.351689	0.186343	-0.005886	-0.180165	0.000000	0.000000	0.000000	-0.000393	0.032868	0.000657
0.760000	0.000000	0.000000	0.000000	0.000000	0.000000	0.000000	-31.421646	217.464767	-6.451350	0.186019	-0.005965	-0.180488	0.000000	0.000000	0.000000	-0.001086	0.090806	0.001815
0.770000	0.000000	0.000000	0.000000	0.000000	0.000000	0.000000	-35.316860	221.215622	-6.734116	0.185626	-0.006021	-0.180710	0.000000	0.000000	0.000000	-0.002083	0.174125	0.003480
0.780000	0.000000	0.000000	0.000000	0.000000	0.000000	0.000000	-39.332535	223.751480	-7.219441	0.185143	-0.006049	-0.180868	0.000000	0.000000	0.000000	-0.003349	0.279976	0.005595
0.790000	0.000000	0.000000	0.000000	0.000000	0.000000	0.000000	-43.305309	224.350906	-7.883707	0.184560	-0.006045	-0.181013	0.000000	0.000000	0.000000	-0.004796	0.400960	0.008013
0.800000	0.000000	0.000000	0.000000	0.000000	0.000000	0.000000	-46.993191	222.226852	-8.645351	0.183874	-0.006019	-0.181196	0.000000	0.000000	0.000000	-0.006267	0.523946	0.010471
0.810000	0.000000	0.000000	0.000000	0.000000	0.000000	0.000000	-50.072701	216.623718	-9.372914	0.183115	-0.005979	-0.181458	0.000000	0.000000	0.000000	-0.007544	0.630686	0.012604
0.820000	3.794271	24.778086	-1.211899	-0.185497	-0.002506	-0.292795	-52.153530	206.925781	-9.906487	0.182373	-0.005936	-0.181816	-0.000223	0.212287	-0.000462	-0.008395	0.701830	0.014026
0.830000	7.274456	46.323517	-1.524799	-0.192598	-0.002768	-0.293259	-52.816582	192.781372	-10.085807	0.181819	-0.005890	-0.182269	-0.000375	0.356809	-0.000776	-0.008628	0.721347	0.014416
0.840000	11.802933	73.932144	-1.653094	-0.198412	-0.002877	-0.293451	-51.676907	174.212738	-9.791392	0.181710	-0.005838	-0.182807	-0.000553	0.527066	-0.001147	-0.008150	0.681321	0.013616
0.850000	17.087355	105.197205	-1.393232	-0.204839	-0.002715	-0.293744	-48.469025	151.732315	-8.973134	0.182363	-0.005779	-0.183416	-0.000733	0.698441	-0.001520	-0.006983	0.583810	0.011667
0.860000	22.769499	137.124619	-0.492593	-0.213042	-0.002152	-0.294315	-43.157383	126.431084	-7.662267	0.184098	-0.005720	-0.184093	-0.000884	0.842361	-0.001833	-0.005257	0.439512	0.008784
